<svg width="157" height="24" viewBox="0 0 157 24" fill="none" xmlns="http://www.w3.org/2000/svg">
<path d="M7.36707 24L3.29482 21.0953L9.14405 13.6883L0 10.9652L1.55486 6.28139L10.5508 9.40393L10.3287 0H15.3635L15.1414 9.40393L24.1003 6.28139L25.6552 10.9652L16.5481 13.6883L22.3233 21.0953L18.2511 24L12.8461 16.3026L7.36707 24Z" fill="#27A376"/>
<path d="M35.6552 20.7181V3.25756H38.918V10.4358H46.6433V3.25756H49.9062V20.7181H46.6433V13.5156H38.918V20.7181H35.6552Z" fill="#111827"/>
<path d="M57.5965 21.1061C56.5808 21.1061 55.7531 20.9323 55.1133 20.5847C54.4735 20.2371 53.9737 19.7965 53.6139 19.263C53.262 18.7295 53.0101 18.1758 52.8581 17.6019C52.7062 17.0198 52.6142 16.4904 52.5822 16.0134C52.5502 15.5365 52.5342 15.1889 52.5342 14.9707V7.62269H55.8451V13.8066C55.8451 14.1057 55.8611 14.4897 55.893 14.9585C55.925 15.4193 56.025 15.8841 56.1929 16.3529C56.3609 16.8218 56.6328 17.2138 57.0087 17.5291C57.3925 17.8444 57.9323 18.002 58.6281 18.002C58.908 18.002 59.2079 17.9575 59.5278 17.8686C59.8477 17.7797 60.1476 17.6099 60.4275 17.3594C60.7074 17.1007 60.9353 16.7248 61.1112 16.2317C61.2951 15.7305 61.3871 15.0757 61.3871 14.2674L63.2585 15.1647C63.2585 16.1994 63.0505 17.1694 62.6347 18.0747C62.2188 18.9801 61.591 19.7117 60.7513 20.2694C59.9196 20.8272 58.868 21.1061 57.5965 21.1061ZM61.795 20.7181V16.3772H61.3871V7.62269H64.674V20.7181H61.795Z" fill="#111827"/>
<path d="M83.1213 20.7181V12.9821C83.1213 12.1172 82.9173 11.4462 82.5095 10.9693C82.1096 10.4843 81.5538 10.2418 80.8421 10.2418C80.3862 10.2418 79.9904 10.3509 79.6545 10.5692C79.3186 10.7793 79.0547 11.0784 78.8628 11.4664C78.6788 11.8464 78.5869 12.2869 78.5869 12.7881L77.2194 11.8666C77.2194 10.9693 77.4273 10.1771 77.8431 9.48999C78.267 8.80289 78.8308 8.26937 79.5345 7.88945C80.2463 7.50143 81.034 7.30743 81.8977 7.30743C83.3772 7.30743 84.4928 7.75203 85.2445 8.64122C86.0043 9.52233 86.3841 10.6783 86.3841 12.1091V20.7181H83.1213ZM67.5028 20.7181V7.62269H70.3818V11.9636H70.7896V20.7181H67.5028ZM75.324 20.7181V12.9821C75.324 12.1172 75.1201 11.4462 74.7122 10.9693C74.3124 10.4843 73.7566 10.2418 73.0448 10.2418C72.3651 10.2418 71.8173 10.4802 71.4014 10.9572C70.9935 11.426 70.7896 12.0363 70.7896 12.7881L69.4221 11.8181C69.4221 10.9612 69.634 10.1933 70.0579 9.51424C70.4817 8.83522 71.0495 8.29767 71.7613 7.90157C72.481 7.50548 73.2847 7.30743 74.1724 7.30743C75.1881 7.30743 76.0198 7.52569 76.6675 7.9622C77.3233 8.39871 77.8071 8.98073 78.119 9.70825C78.4309 10.4358 78.5869 11.236 78.5869 12.1091V20.7181H75.324Z" fill="#111827"/>
<path d="M92.6023 21.0818C91.6746 21.0818 90.8869 20.904 90.2391 20.5483C89.5994 20.1846 89.1115 19.7036 88.7757 19.1054C88.4478 18.4991 88.2838 17.8322 88.2838 17.1047C88.2838 16.4985 88.3758 15.9447 88.5597 15.4435C88.7437 14.9424 89.0396 14.5018 89.4474 14.1219C89.8633 13.7339 90.4191 13.4105 91.1148 13.1519C91.5947 12.974 92.1665 12.8164 92.8302 12.679C93.494 12.5415 94.2457 12.4122 95.0854 12.291C95.9251 12.1616 96.8488 12.0202 97.8565 11.8666L96.6809 12.5213C96.6809 11.7453 96.4969 11.1754 96.1291 10.8117C95.7612 10.4479 95.1454 10.266 94.2817 10.266C93.8019 10.266 93.3021 10.3832 92.7822 10.6177C92.2624 10.8521 91.8986 11.2684 91.6906 11.8666L88.7397 10.9208C89.0676 9.83759 89.6833 8.95648 90.587 8.27746C91.4907 7.59844 92.7223 7.25893 94.2817 7.25893C95.4253 7.25893 96.441 7.43677 97.3286 7.79244C98.2163 8.14812 98.8881 8.76247 99.3439 9.6355C99.5998 10.1205 99.7518 10.6055 99.7998 11.0905C99.8478 11.5756 99.8717 12.1172 99.8717 12.7153V20.7181H97.0168V18.0262L97.4246 18.584C96.7928 19.4651 96.1091 20.1037 95.3733 20.4998C94.6456 20.8878 93.7219 21.0818 92.6023 21.0818ZM93.2981 18.487C93.8979 18.487 94.4017 18.3819 94.8095 18.1718C95.2254 17.9535 95.5533 17.7069 95.7932 17.4321C96.0411 17.1573 96.209 16.9269 96.297 16.741C96.465 16.3853 96.5609 15.973 96.5849 15.5042C96.6169 15.0272 96.6329 14.6311 96.6329 14.3159L97.5926 14.5584C96.6249 14.7201 95.8412 14.8575 95.2414 14.9707C94.6416 15.0757 94.1578 15.1727 93.7899 15.2617C93.422 15.3506 93.0981 15.4476 92.8182 15.5527C92.4983 15.682 92.2384 15.8235 92.0385 15.9771C91.8466 16.1226 91.7026 16.2842 91.6067 16.4621C91.5187 16.6399 91.4747 16.838 91.4747 17.0562C91.4747 17.3553 91.5467 17.614 91.6906 17.8322C91.8426 18.0424 92.0545 18.2041 92.3264 18.3173C92.5983 18.4304 92.9222 18.487 93.2981 18.487Z" fill="#111827"/>
<path d="M111.32 20.7181V14.5341C111.32 14.2351 111.304 13.8551 111.272 13.3944C111.24 12.9255 111.14 12.4567 110.972 11.9878C110.804 11.519 110.528 11.1269 110.144 10.8117C109.768 10.4964 109.233 10.3388 108.537 10.3388C108.257 10.3388 107.957 10.3832 107.637 10.4721C107.317 10.5611 107.017 10.7349 106.738 10.9935C106.458 11.2441 106.226 11.616 106.042 12.1091C105.866 12.6022 105.778 13.2569 105.778 14.0734L103.907 13.1761C103.907 12.1414 104.114 11.1714 104.53 10.266C104.946 9.36066 105.57 8.62909 106.402 8.07133C107.241 7.51356 108.297 7.23468 109.569 7.23468C110.584 7.23468 111.412 7.40847 112.052 7.75607C112.691 8.10366 113.187 8.54422 113.539 9.07773C113.899 9.61125 114.155 10.169 114.307 10.751C114.459 11.325 114.551 11.8504 114.583 12.3273C114.615 12.8043 114.631 13.1519 114.631 13.3701V20.7181H111.32ZM102.467 20.7181V7.62269H105.37V11.9636H105.778V20.7181H102.467Z" fill="#111827"/>
<path d="M117.484 20.7181V2.8938H120.746V20.7181H117.484Z" fill="#111827"/>
<path d="M124.083 5.80388V2.8938H127.346V5.80388H124.083ZM124.083 20.7181V7.62269H127.346V20.7181H124.083Z" fill="#111827"/>
<path d="M139.271 20.7181V14.5341C139.271 14.2351 139.255 13.8551 139.223 13.3944C139.191 12.9255 139.091 12.4567 138.923 11.9878C138.755 11.519 138.479 11.1269 138.095 10.8117C137.72 10.4964 137.184 10.3388 136.488 10.3388C136.208 10.3388 135.908 10.3832 135.588 10.4721C135.268 10.5611 134.969 10.7349 134.689 10.9935C134.409 11.2441 134.177 11.616 133.993 12.1091C133.817 12.6022 133.729 13.2569 133.729 14.0734L131.858 13.1761C131.858 12.1414 132.066 11.1714 132.481 10.266C132.897 9.36066 133.521 8.62909 134.353 8.07133C135.192 7.51356 136.248 7.23468 137.52 7.23468C138.535 7.23468 139.363 7.40847 140.003 7.75607C140.643 8.10366 141.138 8.54422 141.49 9.07773C141.85 9.61125 142.106 10.169 142.258 10.751C142.41 11.325 142.502 11.8504 142.534 12.3273C142.566 12.8043 142.582 13.1519 142.582 13.3701V20.7181H139.271ZM130.418 20.7181V7.62269H133.321V11.9636H133.729V20.7181H130.418Z" fill="#111827"/>
<path d="M150.982 21.0818C149.655 21.0818 148.483 20.7949 147.468 20.2209C146.46 19.6389 145.668 18.8427 145.092 17.8322C144.525 16.8137 144.241 15.6497 144.241 14.3401C144.241 12.9093 144.521 11.6645 145.08 10.6055C145.64 9.54658 146.412 8.7261 147.396 8.14408C148.379 7.55398 149.511 7.25893 150.79 7.25893C152.15 7.25893 153.306 7.58227 154.257 8.22896C155.209 8.87564 155.913 9.78504 156.368 10.9572C156.824 12.1293 156.984 13.5075 156.848 15.0919H153.621V13.8794C153.621 12.5456 153.409 11.5877 152.986 11.0057C152.57 10.4156 151.886 10.1205 150.934 10.1205C149.823 10.1205 149.003 10.4641 148.475 11.1512C147.955 11.8302 147.695 12.8366 147.695 14.1704C147.695 15.391 147.955 16.3368 148.475 17.0077C149.003 17.6706 149.775 18.002 150.79 18.002C151.43 18.002 151.978 17.8605 152.434 17.5776C152.89 17.2947 153.238 16.8865 153.477 16.3529L156.74 17.2987C156.252 18.4951 155.481 19.4247 154.425 20.0876C153.377 20.7504 152.23 21.0818 150.982 21.0818ZM146.688 15.0919V12.6426H155.277V15.0919H146.688Z" fill="#111827"/>
</svg>
